<svg xmlns="http://www.w3.org/2000/svg" viewBox="0 0 64 64" width="64" height="64">
  <defs><radialGradient id="glow" cx="50%" cy="50%" r="50%">
    <stop offset="0%" stop-color="#ff6a1a" stop-opacity="0.85"/>
    <stop offset="55%" stop-color="#ff6a1a" stop-opacity="0.35"/>
    <stop offset="100%" stop-color="#ff6a1a" stop-opacity="0"/>
  </radialGradient></defs>
  <rect x="0" y="0" width="64" height="64" rx="14" fill="#16181d" stroke="#2c3240" stroke-width="1"/>
  <circle cx="32" cy="32" r="18" fill="url(#glow)"/>
  <polygon points="50.56,-1.81 52.22,-0.15 50.56,1.52 48.90,-0.15" fill="#ff6a1a"/><polygon points="70.33,40.86 71.74,42.27 70.33,43.68 68.92,42.27" fill="#ffc20e"/><polygon points="14.08,61.25 15.87,63.04 14.08,64.83 12.29,63.04" fill="#ff6a1a"/><polygon points="8.36,0.46 9.64,1.74 8.36,3.02 7.08,1.74" fill="#ffc20e"/><polygon points="42.68,63.72 43.83,64.87 42.68,66.02 41.53,64.87" fill="#ffc20e"/><polygon points="72.17,17.92 73.20,18.95 72.17,19.97 71.15,18.95" fill="#ff6a1a"/><polygon points="-2.88,43.29 -1.47,44.70 -2.88,46.10 -4.29,44.70" fill="#ffc20e"/><polygon points="28.43,-9.96 29.58,-8.80 28.43,-7.65 27.28,-8.80" fill="#ff6a1a"/><polygon points="62.77,61.88 63.67,62.77 62.77,63.67 61.88,62.77" fill="#ffc20e"/>
  <polygon points="33.94,29.21 38.63,7.27 31.72,28.61" fill="#ffc20e"/><polygon points="35.08,30.55 50.10,13.90 33.45,28.92" fill="#ffc20e"/><polygon points="35.39,32.28 56.73,25.37 34.79,30.06" fill="#ffc20e"/><polygon points="34.79,33.94 56.73,38.63 35.39,31.72" fill="#ffc20e"/><polygon points="33.45,35.08 50.10,50.10 35.08,33.45" fill="#ffc20e"/><polygon points="31.72,35.39 38.63,56.73 33.94,34.79" fill="#ffc20e"/><polygon points="30.06,34.79 25.37,56.73 32.28,35.39" fill="#ffc20e"/><polygon points="28.92,33.45 13.90,50.10 30.55,35.08" fill="#ffc20e"/><polygon points="28.61,31.72 7.27,38.63 29.21,33.94" fill="#ffc20e"/><polygon points="29.21,30.06 7.27,25.37 28.61,32.28" fill="#ffc20e"/><polygon points="30.55,28.92 13.90,13.90 28.92,30.55" fill="#ffc20e"/><polygon points="32.28,28.61 25.37,7.27 30.06,29.21" fill="#ffc20e"/><polygon points="32.58,28.80 32.00,14.72 31.42,28.80" fill="#ffc20e"/><polygon points="34.10,29.52 40.64,17.04 33.10,28.94" fill="#ffc20e"/><polygon points="35.06,30.90 46.96,23.36 34.48,29.90" fill="#ffc20e"/><polygon points="35.20,32.58 49.28,32.00 35.20,31.42" fill="#ffc20e"/><polygon points="34.48,34.10 46.96,40.64 35.06,33.10" fill="#ffc20e"/><polygon points="33.10,35.06 40.64,46.96 34.10,34.48" fill="#ffc20e"/><polygon points="31.42,35.20 32.00,49.28 32.58,35.20" fill="#ffc20e"/><polygon points="29.90,34.48 23.36,46.96 30.90,35.06" fill="#ffc20e"/><polygon points="28.94,33.10 17.04,40.64 29.52,34.10" fill="#ffc20e"/><polygon points="28.80,31.42 14.72,32.00 28.80,32.58" fill="#ffc20e"/><polygon points="29.52,29.90 17.04,23.36 28.94,30.90" fill="#ffc20e"/><polygon points="30.90,28.94 23.36,17.04 29.90,29.52" fill="#ffc20e"/>
  <polygon points="32.00,2.56 33.82,25.20 42.24,14.26 36.98,27.02 57.50,17.28 38.80,30.18 52.48,32.00 38.80,33.82 57.50,46.72 36.98,36.98 42.24,49.74 33.82,38.80 32.00,61.44 30.18,38.80 21.76,49.74 27.02,36.98 6.50,46.72 25.20,33.82 11.52,32.00 25.20,30.18 6.50,17.28 27.02,27.02 21.76,14.26 30.18,25.20" fill="#ffc20e"/>
  <circle cx="32" cy="32" r="9.6" fill="#ff6a1a"/>
  <circle cx="32" cy="32" r="4.6" fill="#ffc20e"/>
</svg>
